<?xml version="1.0"?>
<svg xmlns="http://www.w3.org/2000/svg" xmlns:xlink="http://www.w3.org/1999/xlink" xmlns:svgjs="http://svgjs.com/svgjs" version="1.1" width="512" height="512" x="0" y="0" viewBox="0 0 24 24" style="enable-background:new 0 0 512 512" xml:space="preserve" class=""><g><path xmlns="http://www.w3.org/2000/svg" d="m7.75 24c-.414 0-.75-.336-.75-.75v-22.5c0-.414.336-.75.75-.75s.75.336.75.75v22.5c0 .414-.336.75-.75.75z" fill="#6be5d3" data-original="#000000" style="" class=""/><path xmlns="http://www.w3.org/2000/svg" d="m16.25 24c-.414 0-.75-.336-.75-.75v-22.5c0-.414.336-.75.75-.75s.75.336.75.75v22.5c0 .414-.336.75-.75.75z" fill="#6be5d3" data-original="#000000" style="" class=""/><path xmlns="http://www.w3.org/2000/svg" d="m23.25 8.5h-22.5c-.414 0-.75-.336-.75-.75s.336-.75.75-.75h22.5c.414 0 .75.336.75.75s-.336.75-.75.75z" fill="#6be5d3" data-original="#000000" style="" class=""/><path xmlns="http://www.w3.org/2000/svg" d="m23.25 17h-22.5c-.414 0-.75-.336-.75-.75s.336-.75.75-.75h22.5c.414 0 .75.336.75.75s-.336.75-.75.75z" fill="#6be5d3" data-original="#000000" style="" class=""/><path xmlns="http://www.w3.org/2000/svg" d="m12 15c-1.654 0-3-1.346-3-3s1.346-3 3-3 3 1.346 3 3-1.346 3-3 3zm0-4.5c-.827 0-1.5.673-1.5 1.5s.673 1.5 1.5 1.5 1.5-.673 1.5-1.5-.673-1.5-1.5-1.5z" fill="#6be5d3" data-original="#000000" style="" class=""/><path xmlns="http://www.w3.org/2000/svg" d="m3 6c-1.654 0-3-1.346-3-3s1.346-3 3-3 3 1.346 3 3-1.346 3-3 3zm0-4.5c-.827 0-1.5.673-1.5 1.5s.673 1.5 1.5 1.5 1.5-.673 1.5-1.5-.673-1.5-1.5-1.5z" fill="#6be5d3" data-original="#000000" style="" class=""/><path xmlns="http://www.w3.org/2000/svg" d="m22.25 6c-.192 0-.384-.073-.53-.22l-3.5-3.5c-.293-.293-.293-.768 0-1.061s.768-.293 1.061 0l3.5 3.5c.293.293.293.768 0 1.061-.147.147-.339.22-.531.22z" fill="#6be5d3" data-original="#000000" style="" class=""/><path xmlns="http://www.w3.org/2000/svg" d="m18.75 6c-.192 0-.384-.073-.53-.22-.293-.293-.293-.768 0-1.061l3.5-3.5c.293-.293.768-.293 1.061 0s.293.768 0 1.061l-3.5 3.5c-.147.147-.339.22-.531.22z" fill="#6be5d3" data-original="#000000" style="" class=""/><path xmlns="http://www.w3.org/2000/svg" d="m22.25 23c-.192 0-.384-.073-.53-.22l-3.5-3.5c-.293-.293-.293-.768 0-1.061s.768-.293 1.061 0l3.5 3.5c.293.293.293.768 0 1.061-.147.147-.339.22-.531.22z" fill="#6be5d3" data-original="#000000" style="" class=""/><path xmlns="http://www.w3.org/2000/svg" d="m18.75 23c-.192 0-.384-.073-.53-.22-.293-.293-.293-.768 0-1.061l3.5-3.5c.293-.293.768-.293 1.061 0s.293.768 0 1.061l-3.5 3.5c-.147.147-.339.22-.531.22z" fill="#6be5d3" data-original="#000000" style="" class=""/></g></svg>
